# xmcd
#
# Track frame offsets: 
#        150
#        32255
#        41035
#        55585
#        64387
#        84123
#        102962
#        116951
#        118705
#        130393
#
# Disc length: 2041 seconds
#
# Revision: 4
# Processed by: cddbd v1.5.2PL0 Copyright (c) Steve Scherf et al.
# Submitted via: ExactAudioCopy v1.0b3
#
DISCID=8307f70a
DTITLE=Fabrizio de André - Tutti morimmo a stento
DYEAR=1968
DGENRE=Cantautori Italiani
TTITLE0=Cantico dei drogati
TTITLE1=Primo intermezzo
TTITLE2=Leggenda di Natale
TTITLE3=Secondo intermezzo
TTITLE4=Ballata degli impiccati
TTITLE5=Inverno
TTITLE6=Girotondo
TTITLE7=Terzo intermezzo
TTITLE8=Recitativo (due invocazioni e un atto d'accusa)
TTITLE9=Corale (leggenda del Re infelice)
EXTD=
EXTT0=
EXTT1=
EXTT2=
EXTT3=
EXTT4=
EXTT5=
EXTT6=
EXTT7=
EXTT8=
EXTT9=
PLAYORDER=
